# xmcd
#
# Track frame offsets:
#	150
#	14214
#	29986
#	47886
#	60416
#	77636
#	93761
#	107897
#	121001
#	137173
#	152890
#	166429
#	182818
#	201372
#	215414
#	226566
#	239730
#	260625
#	279947
#	301168
#
# Disc length: 4187 seconds
#
# Revision: 1
# Processed by: cddbd v1.5.2PL0 Copyright (c) Steve Scherf et al.
# Submitted via: audiograbber 1.83.01
#
DISCID=1d105914
DTITLE=Various Artist - Country Discovery Records 2013
DYEAR=2013
DGENRE=Country
TTITLE0=Heather Riley - Radi-io
TTITLE1=Bob Corley - I Don' Want It To
TTITLE2=Scott Sharp - Irish Angel
TTITLE3=Derrick Mehaffey - Why Do I Have To Choose
TTITLE4=TammRae - Share All My Feelings
TTITLE5=Shane Worley - Lonesome Wandering Traveler
TTITLE6=Norville Dollar - All Fall Down
TTITLE7=Liana Wallinder - I'm A Honky Tonk Woman
TTITLE8=TammRae - Before We Go To Bed Tonight
TTITLE9=Norville Dollar - Comin' Up Zero Again
TTITLE10=Heather Riley - But I Love Him
TTITLE11=Wade Sims - But I Love Him
TTITLE12=Sammy Joe Suggins - Letter To Lola Jean
TTITLE13=Jenny Lane - Your Love's A River
TTITLE14=Chase and Kriz - The Wings Of Love
TTITLE15=Bob Corley - 22 Years AGo
TTITLE16=Scott Sharp - Greatest Music Never Heard
TTITLE17=Norville Dollar and Heather Riley - Whatever Happened To Us
TTITLE18=Tommy Allen - Hell Of A Shell Of A Man
TTITLE19=Tommy Allen - Good Old Boys
EXTD=
EXTT0=
EXTT1=
EXTT2=
EXTT3=
EXTT4=
EXTT5=
EXTT6=
EXTT7=
EXTT8=
EXTT9=
EXTT10=
EXTT11=
EXTT12=
EXTT13=
EXTT14=
EXTT15=
EXTT16=
EXTT17=
EXTT18=
EXTT19=
PLAYORDER=
